<?xml version="1.0" encoding="utf-8"?>
<svg version="1.1" x="0px" y="0px" viewBox="0 0 33 41.25" enable-background="new 0 0 33 33" xmlns="http://www.w3.org/2000/svg">
  <rect x="10.459" y="3.521" width="12.082" height="1.51"/>
  <path d="M22.541,2.768V1.445c0-0.521-0.422-0.943-0.943-0.945H11.402c-0.521,0.002-0.943,0.424-0.943,0.945v1.32L22.541,2.768z"/>
  <path d="M10.459,5.787v7.865c0,0.521,0.422,0.945,0.943,0.945h0.422c0.307-2.309,2.283-4.092,4.676-4.092  c2.395,0.002,4.369,1.783,4.678,4.092h0.42c0.521,0,0.943-0.424,0.943-0.943V5.787H10.459z M16.5,9.752  c-0.834,0-1.51-0.676-1.51-1.51S15.666,6.73,16.5,6.73s1.51,0.678,1.51,1.512S17.334,9.752,16.5,9.752z"/>
  <circle cx="16.5" cy="8.242" r="1.059"/>
  <circle cx="16.501" cy="28.631" r="1.628"/>
  <path d="M17.922,11.422c-0.449-0.143-0.926-0.223-1.422-0.223s-0.973,0.08-1.422,0.223c0.02,3.254-0.119,11.053-1.754,15.002  c-0.436,0.627-0.693,1.387-0.693,2.207c0,2.133,1.736,3.869,3.869,3.869c2.135,0,3.871-1.736,3.871-3.869  c0-0.82-0.258-1.58-0.695-2.207C18.043,22.475,17.904,14.676,17.922,11.422z M16.5,30.787c-1.189,0-2.156-0.967-2.156-2.156  s0.967-2.156,2.156-2.156s2.158,0.967,2.158,2.156S17.689,30.787,16.5,30.787z"/>
  <path d="M12.418,26.979h-1.896c-0.313,0-0.566,0.254-0.566,0.566v2.172c0,0.313,0.254,0.564,0.566,0.566l1.896-0.002  c-0.207-0.51-0.322-1.066-0.322-1.65S12.211,27.49,12.418,26.979z"/>
  <path d="M22.479,26.979h-1.896c0.209,0.512,0.324,1.068,0.324,1.652s-0.115,1.141-0.324,1.652h1.896  c0.313,0,0.566-0.254,0.566-0.568v-2.17C23.045,27.232,22.791,26.979,22.479,26.979z"/>
</svg>