<?xml version="1.0" encoding="utf-8"?>
<svg viewBox="184.745 172.34 204.774 157.659" xmlns="http://www.w3.org/2000/svg">
  <defs>
    <linearGradient gradientUnits="userSpaceOnUse" x1="250.026" y1="171.004" x2="250.026" y2="317.33" id="gradient-1" gradientTransform="matrix(-0.718316, 0.695718, -0.427456, -0.44134, 508.406623, 149.032553)">
      <stop offset="0" style="stop-color: rgb(100% 43.529% 0%)"/>
      <stop offset="1" style="stop-color: rgb(255, 176, 19);"/>
    </linearGradient>
    <linearGradient gradientUnits="userSpaceOnUse" x1="297.073" y1="170.928" x2="297.073" y2="317.254" id="gradient-2" gradientTransform="matrix(-0.728512, -0.685033, 0.886707, -0.942984, 300.416845, 672.60044)">
      <stop offset="0" style="stop-color: rgb(100% 43.529% 0%)"/>
      <stop offset="1" style="stop-color: rgb(255, 176, 19);"/>
    </linearGradient>
  </defs>
  <g transform="matrix(1.052041, 0, 0, 1.052041, -0.730709, -5.778692)" style="">
    <path d="M 317.784 177.377 L 322.655 172.416 C 324.578 170.458 327.721 170.43 329.686 172.345 L 368.005 209.974 C 369.955 211.904 369.984 215.047 368.062 217.005 L 363.179 221.977 L 317.784 177.377 Z M 314.993 180.217 L 360.398 224.806 L 354.826 230.48 L 309.42 185.892 L 314.993 180.217 Z M 324.253 224.164 C 322.095 226.362 318.562 226.394 316.365 224.236 C 314.167 222.077 314.135 218.545 316.293 216.348 C 318.452 214.15 321.983 214.117 324.181 216.276 C 326.379 218.434 326.412 221.966 324.253 224.164 Z M 352.036 233.323 L 323.003 262.888 C 321.088 264.838 317.937 264.874 315.979 262.952 L 314.4 261.401 C 321.76 251.584 320.914 237.605 311.922 228.759 C 302.928 219.927 288.922 219.336 279.247 226.88 L 277.66 225.323 C 275.703 223.4 275.682 220.249 277.604 218.291 L 306.63 188.734 L 352.036 233.323 Z M 325.948 225.827 C 329.026 222.693 328.987 217.65 325.853 214.572 C 322.719 211.494 317.676 211.547 314.598 214.682 C 311.521 217.815 311.566 222.851 314.701 225.929 C 317.834 229.006 322.87 228.961 325.948 225.827 Z M 265.109 300.306 C 264.438 304.275 262.603 308.084 259.576 311.165 C 251.704 319.181 238.773 319.299 230.75 311.42 C 222.734 303.548 222.617 290.617 230.488 282.601 C 233.515 279.519 237.285 277.611 241.237 276.864 C 261.955 268.058 291.26 239.261 303.194 226.958 C 305.409 228.078 307.497 229.537 309.361 231.368 C 311.225 233.198 312.723 235.259 313.882 237.453 C 301.806 249.617 273.546 279.439 265.109 300.306 Z M 253.138 304.843 C 257.526 300.375 257.453 293.165 252.985 288.777 C 248.517 284.389 241.313 284.454 236.926 288.922 C 232.537 293.391 232.603 300.594 237.071 304.983 C 241.539 309.37 248.75 309.312 253.138 304.843 Z M 251.149 302.893 C 247.831 306.272 242.401 306.32 239.023 303.003 C 235.644 299.684 235.594 294.255 238.913 290.876 C 242.231 287.497 247.66 287.448 251.039 290.766 C 254.418 294.084 254.468 299.513 251.149 302.893 Z" style="paint-order: fill; fill: url('#gradient-2');"/>
    <path d="M 183.92 222.053 L 179.037 217.081 C 177.115 215.123 177.144 211.98 179.094 210.049 L 217.413 172.421 C 219.378 170.506 222.521 170.534 224.444 172.491 L 229.315 177.452 L 183.92 222.053 Z M 237.679 185.968 L 192.273 230.556 L 186.701 224.882 L 232.107 180.294 L 237.679 185.968 Z M 222.915 216.361 C 225.114 214.202 228.645 214.234 230.803 216.433 C 232.962 218.631 232.93 222.162 230.732 224.321 C 228.534 226.48 225.002 226.447 222.844 224.249 C 220.685 222.051 220.717 218.52 222.915 216.361 Z M 240.469 188.811 L 269.495 218.368 C 271.417 220.326 271.396 223.477 269.438 225.4 L 267.852 226.958 C 258.177 219.413 244.171 220.004 235.177 228.836 C 226.185 237.682 225.338 251.661 232.699 261.478 L 231.12 263.029 C 229.162 264.951 226.011 264.915 224.096 262.965 L 195.063 233.4 L 240.469 188.811 Z M 232.398 226.006 C 235.533 222.928 235.578 217.892 232.501 214.759 C 229.423 211.624 224.38 211.571 221.246 214.649 C 218.112 217.727 218.073 222.77 221.151 225.904 C 224.229 229.038 229.264 229.083 232.398 226.006 Z M 233.217 237.529 C 234.376 235.335 235.874 233.274 237.738 231.444 C 239.602 229.613 241.689 228.153 243.905 227.033 C 255.839 239.336 285.143 268.133 305.862 276.94 C 309.814 277.687 313.584 279.595 316.61 282.676 C 324.482 290.693 324.365 303.624 316.349 311.496 C 308.325 319.374 295.394 319.257 287.523 311.241 C 284.496 308.159 282.661 304.351 281.99 300.382 C 273.553 279.515 245.293 249.692 233.217 237.529 Z M 310.027 305.058 C 314.496 300.67 314.561 293.466 310.173 288.998 C 305.786 284.53 298.582 284.464 294.113 288.853 C 289.645 293.24 289.573 300.451 293.96 304.919 C 298.349 309.387 305.559 309.446 310.027 305.058 Z M 296.06 290.853 C 299.439 287.535 304.868 287.584 308.186 290.963 C 311.504 294.342 311.455 299.771 308.076 303.09 C 304.697 306.408 299.267 306.358 295.95 302.979 C 292.631 299.6 292.681 294.171 296.06 290.853 Z" style="paint-order: fill; fill: url('#gradient-1');"/>
  </g>
</svg>